<svg width="32" height="40" viewBox="0 0 32 40" fill="none" xmlns="http://www.w3.org/2000/svg">
<path d="M0.615234 2.6923C0.615234 2.18227 0.817844 1.69313 1.17849 1.33248C1.53914 0.971835 2.02828 0.769226 2.53831 0.769226H29.4614C29.9714 0.769226 30.4606 0.971835 30.8212 1.33248C31.1819 1.69313 31.3845 2.18227 31.3845 2.6923V37.3077C31.3845 37.8177 31.1819 38.3069 30.8212 38.6675C30.4606 39.0282 29.9714 39.2308 29.4614 39.2308H23.6922C23.1821 39.2308 22.693 39.0282 22.3323 38.6675C21.9717 38.3069 21.7691 37.8177 21.7691 37.3077V29.6154C21.7691 29.1053 21.5665 28.6162 21.2058 28.2556C20.8452 27.8949 20.356 27.6923 19.846 27.6923H12.1537C11.6437 27.6923 11.1545 27.8949 10.7939 28.2556C10.4332 28.6162 10.2306 29.1053 10.2306 29.6154V37.3077C10.2306 37.8177 10.028 38.3069 9.66736 38.6675C9.30672 39.0282 8.81757 39.2308 8.30754 39.2308H2.53831C2.02828 39.2308 1.53914 39.0282 1.17849 38.6675C0.817844 38.3069 0.615234 37.8177 0.615234 37.3077V2.6923ZM8.30754 6.53846V12.3077H14.0768V6.53846H8.30754ZM8.30754 16.1538V21.9231H14.0768V16.1538H8.30754ZM17.9229 6.53846V12.3077H23.6922V6.53846H17.9229ZM17.9229 16.1538V21.9231H23.6922V16.1538H17.9229Z" fill="#CBD5E1"/>
</svg>
