<svg width="50" height="50" viewBox="0 0 50 50" fill="none" xmlns="http://www.w3.org/2000/svg">
<path opacity="0.3" d="M41.2919 12.5C41.8969 12.5002 42.4947 12.6322 43.0435 12.8868C43.5924 13.1414 44.0792 13.5124 44.4702 13.9742C44.8612 14.4359 45.1469 14.9773 45.3075 15.5606C45.4681 16.144 45.4997 16.7553 45.4002 17.3521L41.9294 38.1854C41.7671 39.1583 41.265 40.0421 40.5124 40.6796C39.7597 41.317 38.8053 41.6668 37.819 41.6667H12.1815C11.1951 41.6668 10.2407 41.317 9.48809 40.6796C8.73543 40.0421 8.2333 39.1583 8.07105 38.1854L4.60022 17.3521C4.50069 16.7553 4.53233 16.144 4.69293 15.5606C4.85354 14.9773 5.13926 14.4359 5.53023 13.9742C5.9212 13.5124 6.40804 13.1414 6.95691 12.8868C7.50578 12.6322 8.10351 12.5002 8.70855 12.5H41.2919Z" fill="#34D399"/>
<path d="M37.4998 6.25C38.0524 6.25 38.5823 6.46949 38.973 6.86019C39.3637 7.25089 39.5832 7.7808 39.5832 8.33333C39.5832 8.88587 39.3637 9.41577 38.973 9.80647C38.5823 10.1972 38.0524 10.4167 37.4998 10.4167H12.4998C11.9473 10.4167 11.4174 10.1972 11.0267 9.80647C10.636 9.41577 10.4165 8.88587 10.4165 8.33333C10.4165 7.7808 10.636 7.25089 11.0267 6.86019C11.4174 6.46949 11.9473 6.25 12.4998 6.25H37.4998Z" fill="#34D399"/>
<path fill-rule="evenodd" clip-rule="evenodd" d="M37.333 45C38.7775 45 40.2079 44.7155 41.5425 44.1627C42.8771 43.6099 44.0897 42.7996 45.1112 41.7782C46.1326 40.7567 46.9429 39.5441 47.4957 38.2095C48.0485 36.8749 48.333 35.4445 48.333 34C48.333 32.5555 48.0485 31.1251 47.4957 29.7905C46.9429 28.4559 46.1326 27.2433 45.1112 26.2218C44.0897 25.2004 42.8771 24.3901 41.5425 23.8373C40.2079 23.2845 38.7775 23 37.333 23C34.4156 23 31.6177 24.1589 29.5548 26.2218C27.4919 28.2847 26.333 31.0826 26.333 34C26.333 36.9174 27.4919 39.7153 29.5548 41.7782C31.6177 43.8411 34.4156 45 37.333 45ZM37.0495 38.4489L43.1606 31.1156L41.2832 29.5511L36.0277 35.8566L33.3082 33.1359L31.58 34.8641L35.2467 38.5308L36.1927 39.4768L37.0495 38.4489Z" fill="#34D399"/>
</svg>
