<svg width="50" height="50" viewBox="0 0 50 50" fill="none" xmlns="http://www.w3.org/2000/svg">
<path opacity="0.3" d="M41.2914 12.5C41.8964 12.5002 42.4942 12.6322 43.043 12.8868C43.5919 13.1414 44.0788 13.5124 44.4697 13.9742C44.8607 14.4359 45.1464 14.9773 45.307 15.5606C45.4676 16.144 45.4993 16.7553 45.3997 17.3521L41.9289 38.1854C41.7666 39.1583 41.2645 40.0421 40.5119 40.6796C39.7592 41.317 38.8048 41.6668 37.8185 41.6667H12.181C11.1947 41.6668 10.2403 41.317 9.4876 40.6796C8.73494 40.0421 8.23282 39.1583 8.07056 38.1854L4.59973 17.3521C4.5002 16.7553 4.53184 16.144 4.69245 15.5606C4.85305 14.9773 5.13877 14.4359 5.52974 13.9742C5.92071 13.5124 6.40755 13.1414 6.95642 12.8868C7.5053 12.6322 8.10303 12.5002 8.70806 12.5H41.2914Z" fill="#93C5FD"/>
<path d="M37.5003 6.25C38.0529 6.25 38.5828 6.46949 38.9735 6.86019C39.3642 7.25089 39.5837 7.7808 39.5837 8.33333C39.5837 8.88587 39.3642 9.41577 38.9735 9.80647C38.5828 10.1972 38.0529 10.4167 37.5003 10.4167H12.5003C11.9478 10.4167 11.4179 10.1972 11.0272 9.80647C10.6365 9.41577 10.417 8.88587 10.417 8.33333C10.417 7.7808 10.6365 7.25089 11.0272 6.86019C11.4179 6.46949 11.9478 6.25 12.5003 6.25H37.5003Z" fill="#93C5FD"/>
</svg>
