<svg width="50" height="50" viewBox="0 0 50 50" fill="none" xmlns="http://www.w3.org/2000/svg">
<path opacity="0.3" d="M41.2919 12.5C41.8969 12.5002 42.4947 12.6322 43.0435 12.8868C43.5924 13.1414 44.0792 13.5124 44.4702 13.9742C44.8612 14.4359 45.1469 14.9773 45.3075 15.5606C45.4681 16.144 45.4997 16.7553 45.4002 17.3521L41.9294 38.1854C41.7671 39.1583 41.265 40.0421 40.5124 40.6796C39.7597 41.317 38.8053 41.6668 37.819 41.6667H12.1815C11.1951 41.6668 10.2407 41.317 9.48809 40.6796C8.73543 40.0421 8.2333 39.1583 8.07105 38.1854L4.60022 17.3521C4.50069 16.7553 4.53233 16.144 4.69293 15.5606C4.85354 14.9773 5.13926 14.4359 5.53023 13.9742C5.9212 13.5124 6.40804 13.1414 6.95691 12.8868C7.50578 12.6322 8.10351 12.5002 8.70855 12.5H41.2919Z" fill="#FDBA74"/>
<path d="M37.4998 6.25C38.0524 6.25 38.5823 6.46949 38.973 6.86019C39.3637 7.25089 39.5832 7.7808 39.5832 8.33333C39.5832 8.88587 39.3637 9.41577 38.973 9.80647C38.5823 10.1972 38.0524 10.4167 37.4998 10.4167H12.4998C11.9473 10.4167 11.4174 10.1972 11.0267 9.80647C10.636 9.41577 10.4165 8.88587 10.4165 8.33333C10.4165 7.7808 10.636 7.25089 11.0267 6.86019C11.4174 6.46949 11.9473 6.25 12.4998 6.25H37.4998Z" fill="#FDBA74"/>
<path d="M27.1303 20.1708C32.3951 19.4176 37.2808 23.1453 38.0461 28.4948C38.3009 30.2568 38.0757 32.0538 37.3951 33.6905L42.6874 37.7264L42.6737 37.745C43.2355 38.1543 43.6358 38.7921 43.746 39.562C43.959 41.0492 42.9598 42.3791 41.4981 42.5879C40.7515 42.6944 40.0404 42.4863 39.4932 42.0604L39.4833 42.0738L34.0227 37.9094C32.795 38.7744 31.3838 39.3347 29.9019 39.5455C24.6368 40.2988 19.752 36.5716 18.9867 31.2214C18.2214 25.8718 21.8654 20.9239 27.1303 20.1708ZM29.2992 35.7445C32.59 35.2738 34.8678 32.1818 34.3894 28.8378C33.9112 25.4945 30.8577 23.1646 27.5669 23.6353C24.2762 24.1061 21.9989 27.1983 22.4773 30.5419C22.9554 33.8859 26.0085 36.2153 29.2992 35.7445Z" fill="#FDBA74"/>
</svg>
