<?xml version="1.0" encoding="utf-8"?>
<!-- Generator: Adobe Illustrator 16.0.0, SVG Export Plug-In . SVG Version: 6.00 Build 0)  -->
<!DOCTYPE svg PUBLIC "-//W3C//DTD SVG 1.1//EN" "http://www.w3.org/Graphics/SVG/1.1/DTD/svg11.dtd">
<svg version="1.1" id="Layer_1" xmlns="http://www.w3.org/2000/svg" xmlns:xlink="http://www.w3.org/1999/xlink" x="0px" y="0px"
	 width="915.999px" height="283.465px" viewBox="0 0 915.999 283.465" enable-background="new 0 0 915.999 283.465"
	 xml:space="preserve">
<g>
	<defs>
		<rect id="SVGID_1_" width="915.999" height="283.465"/>
	</defs>
	<clipPath id="SVGID_2_">
		<use xlink:href="#SVGID_1_"  overflow="visible"/>
	</clipPath>
	<path clip-path="url(#SVGID_2_)" fill="#223E7C" d="M128.64,121.976c0.241,0.618,0.329,1.808,0.093,2.329
		c-1.043,2.306-2.038,4.788-3.401,6.618c-5.35,7.186-10.834,14.15-16.268,21.196c-0.555,0.72-1.11,1.439-1.949,2.528
		c2.187,0.427,3.75,0.3,5.321-1.387c3.838-4.119,7.798-7.983,11.719-11.93c0.408-0.412,0.882-0.678,1.325-1.012
		c0.068,0.162,0.136,0.323,0.203,0.485c-2.384,6.693-4.769,13.387-7.153,20.08c0.095,0.114,0.19,0.229,0.285,0.342
		c30.321-29.732,60.642-59.464,91.094-89.328c0.157,0.852,0.274,1.213,0.284,1.58c0.275,9.992,0.575,19.983,0.745,29.979
		c0.017,0.965-0.648,2.246-1.234,2.902c-7.002,7.834-14.05,15.576-21.082,23.349c-0.413,0.456-0.796,0.97-1.193,1.458
		c0.059,0.121,0.119,0.242,0.178,0.363c5.8-2.516,11.599-5.032,17.398-7.549c0.102,0.209,0.205,0.418,0.307,0.627
		c-4.54,8.219-9.081,16.438-13.621,24.657c6.413-3.483,12.489-7.558,18.674-11.218c2.344-1.387,4.036-3.267,4.76-6.893
		c0.655-3.284,2.122-4.961,4.331-5.801c2.963-1.127,5.852-2.693,8.773-4.07c0.093,0.209,0.187,0.417,0.28,0.626
		c-3.873,6.802-7.746,13.604-11.857,20.822c0.753-0.156,1.124-0.188,1.481-0.315c8.747-3.1,17.483-6.27,26.25-9.241
		c1.07-0.362,2.477-0.149,3.429,0.626c9.887,8.055,19.713,16.281,29.557,24.456c0.675,0.562,1.36,1.099,2.04,1.646
		c0.053-0.148,0.106-0.296,0.159-0.444c-7.175-10.507-14.35-21.014-21.524-31.521c0.644-0.319,1.073-0.198,1.469,0.044
		c11.079,6.744,22.267,13.098,32.691,22.057c3.123,2.684,6.388,5.207,9.786,6.918c5.877,2.958,11.908,5.228,17.877,7.777
		c0.846,0.361,1.703,0.667,2.556,0.998c0.035-0.195,0.07-0.392,0.106-0.586c-17.355-17.659-34.709-35.317-52.555-53.477
		c1.384-0.441,2.174-0.724,2.972-0.942c4.837-1.323,9.695-2.497,14.503-4.02c1.604-0.508,2.808-0.131,4.155,1.138
		c6.791,6.399,13.637,12.669,20.458,18.999c0.399,0.371,0.747,0.867,1.515,1.772c-3.243,0.532-5.993,0.983-8.743,1.434
		c-0.014,0.196-0.028,0.391-0.041,0.586c19.27,11.106,38.539,22.211,57.81,33.318c0.049-0.146,0.099-0.292,0.149-0.438
		c0-0.057,0.003-0.112,0.004-0.169c-4.354-3.9-8.711-7.792-13.06-11.705c-19.579-17.618-39.152-35.25-58.749-52.825
		c-0.663-0.595-1.6-1.031-2.33-0.847c-7.526,1.902-15.046,3.863-22.54,6.023c-1.524,0.439-2.678,0.166-3.983-1.04
		c-15.473-14.301-30.999-28.471-46.446-42.832c-1.994-1.854-3.42-2.066-5.538-0.166c-20.427,18.322-40.943,36.422-61.408,54.651
		c-1.123,1-2.038,1.087-3.238,0.433c-6.016-3.273-12.075-6.367-18.089-9.646c-1.165-0.635-2-0.478-3.013,0.599
		c-18.858,20.05-37.741,40.044-56.616,60.058c0.008,0.264,0.012,0.526,0.021,0.788c17.862-15.894,35.724-31.79,53.585-47.687
		C125.93,115.076,125.945,115.06,128.64,121.976"/>
	<path clip-path="url(#SVGID_2_)" fill="#223E7C" d="M67.795,184.906c0,0,84.929-5.599,116.123,3.36
		c31.567,8.965,78.539,36.967,78.539,36.967l45.473-11.577c-33.446-17.922-91.318-36.217-91.318-36.217s60.502,6.719,119.127,28.749
		l27.058-7.091c0,0-69.899-25.02-142.428-30.247C147.463,163.628,67.795,184.906,67.795,184.906"/>
	<path clip-path="url(#SVGID_2_)" fill="#223E7C" d="M729.142,137.202h-44.836c-2.758,0-4.84,2.081-4.84,4.843v6.384
		c0,2.76,2.082,4.841,4.84,4.841h33.135c-1.768,17.345-15.724,29.232-34.803,29.232c-22.281,0-39.082-17.555-39.082-40.837
		c0-22.732,17.101-40.537,38.929-40.537c10.017,0,18.419,3.233,26.451,10.18c2.168,1.852,4.723,1.808,6.697-0.166l4.673-4.833
		c1.001-0.998,1.528-2.245,1.478-3.509c-0.047-1.281-0.674-2.502-1.721-3.403c-11.181-10.056-23.472-14.946-37.578-14.946
		c-31.434,0-56.057,25.13-56.057,57.214c0,32.254,24.689,57.517,56.21,57.517c30.229,0,51.344-21.493,51.344-52.27v-4.867
		C733.981,139.283,731.899,137.202,729.142,137.202"/>
	<path clip-path="url(#SVGID_2_)" fill="#223E7C" d="M851.088,172.491c-0.01-0.01-0.022-0.022-0.033-0.032
		c-1.955-1.948-4.507-1.995-6.675-0.124c-8.028,6.935-16.43,10.167-26.444,10.167c-21.826,0-38.925-17.838-38.925-40.61
		c0-22.858,17.099-40.763,38.925-40.763c10.015,0,18.42,3.232,26.451,10.176c2.168,1.858,4.721,1.812,6.701-0.163l4.68-4.837
		c0.997-0.997,1.521-2.241,1.475-3.505c-0.05-1.281-0.677-2.502-1.725-3.402c-11.181-10.057-23.472-14.947-37.582-14.947
		c-31.434,0-56.056,25.23-56.056,57.441c0,32.124,24.622,57.291,56.056,57.291c14.566,0,26.871-4.9,37.612-14.977
		c1.374-1.277,1.681-2.602,1.694-3.489c0.017-0.86-0.23-2.148-1.444-3.358L851.088,172.491z"/>
	<path clip-path="url(#SVGID_2_)" fill="#223E7C" d="M558.73,132.242c-15.707-3.362-21.828-8.332-21.828-17.715
		c0-12.521,12.962-14.389,20.691-14.389c13.035,0,22.057,4.816,22.987,12.278c0.317,2.498,2.118,3.989,4.823,3.989h6.688
		c1.894,0,3.008-0.791,3.608-1.454c0.584-0.644,1.244-1.788,1.067-3.573c-1.771-17.414-15.688-27.004-39.175-27.004
		c-23.303,0-37.215,11.271-37.215,30.153c0,22.978,19.216,29.499,37.228,33.809c17.298,4.129,25.613,6.664,25.613,19.097
		c0,3.991,0,16.137-24.563,16.137c-14.112,0-23.135-4.677-24.133-12.498c-0.333-2.712-2.315-4.604-4.82-4.604h-7.218
		c-1.307,0-2.511,0.533-3.392,1.504c-0.972,1.071-1.438,2.575-1.287,4.104c1.621,17.675,16.127,27.411,40.85,27.411
		c26.3,0,41.388-11.685,41.388-32.054C600.045,143.032,579.635,136.668,558.73,132.242"/>
	<path clip-path="url(#SVGID_2_)" fill="#223E7C" d="M454.433,85.665h-37.765c-2.762,0-4.843,2.082-4.843,4.843v101.857
		c0,2.762,2.081,4.843,4.843,4.843h7.295c2.758,0,4.84-2.081,4.84-4.843v-35.9h25.63c26.674,0,39.643-11.581,39.643-35.4
		C494.075,97.246,481.106,85.665,454.433,85.665 M455.194,142.956h-28.953V99.173h28.953c14.589,0,24.769,4.106,24.769,21.892
		C479.963,138.851,469.783,142.956,455.194,142.956"/>
</g>
</svg>
